FILE "Three Samples.flac" FLAC
  TRACK 01 AUDIO
    INDEX 01 00:00:00
  TRACK 02 AUDIO
    INDEX 01 00:01:00
  TRACK 03 AUDIO
    INDEX 01 00:02:00
REM FLAC__lead-in 88200
REM FLAC__lead-out 170 264600
